<?xml version="1.0" encoding="UTF-8" standalone="no"?><svg xmlns="http://www.w3.org/2000/svg" xmlns:xlink="http://www.w3.org/1999/xlink" contentScriptType="application/ecmascript" contentStyleType="text/css" height="650px" preserveAspectRatio="none" style="width:412px;height:650px;background:#FFFFFF;" version="1.1" viewBox="0 0 412 650" width="412px" zoomAndPan="magnify"><defs><filter height="300%" id="f1apmi3kpeqiwm" width="300%" x="-1" y="-1"><feGaussianBlur result="blurOut" stdDeviation="2.0"/><feColorMatrix in="blurOut" result="blurOut2" type="matrix" values="0 0 0 0 0 0 0 0 0 0 0 0 0 0 0 0 0 0 .4 0"/><feOffset dx="4.0" dy="4.0" in="blurOut2" result="blurOut3"/><feBlend in="SourceGraphic" in2="blurOut3" mode="normal"/></filter></defs><g><line style="stroke:#A80036;stroke-width:1.0;stroke-dasharray:5.0,5.0;" x1="22" x2="22" y1="89.6094" y2="564.8828"/><line style="stroke:#A80036;stroke-width:1.0;stroke-dasharray:5.0,5.0;" x1="244" x2="244" y1="89.6094" y2="564.8828"/><line style="stroke:#A80036;stroke-width:1.0;stroke-dasharray:5.0,5.0;" x1="378" x2="378" y1="89.6094" y2="564.8828"/><text fill="#000000" font-family="sans-serif" font-size="14" lengthAdjust="spacing" textLength="28" x="5" y="86.5332">user</text><ellipse cx="22" cy="15" fill="#FEFECE" filter="url(#f1apmi3kpeqiwm)" rx="8" ry="8" style="stroke:#A80036;stroke-width:2.0;"/><path d="M22,23 L22,50 M9,31 L35,31 M22,50 L9,65 M22,50 L35,65 " fill="none" filter="url(#f1apmi3kpeqiwm)" style="stroke:#A80036;stroke-width:2.0;"/><text fill="#000000" font-family="sans-serif" font-size="14" lengthAdjust="spacing" textLength="28" x="5" y="578.416">user</text><ellipse cx="22" cy="591.4922" fill="#FEFECE" filter="url(#f1apmi3kpeqiwm)" rx="8" ry="8" style="stroke:#A80036;stroke-width:2.0;"/><path d="M22,599.4922 L22,626.4922 M9,607.4922 L35,607.4922 M22,626.4922 L9,641.4922 M22,626.4922 L35,641.4922 " fill="none" filter="url(#f1apmi3kpeqiwm)" style="stroke:#A80036;stroke-width:2.0;"/><rect fill="#FEFECE" filter="url(#f1apmi3kpeqiwm)" height="31.6094" style="stroke:#A80036;stroke-width:1.5;" width="68" x="208" y="53"/><text fill="#000000" font-family="sans-serif" font-size="14" lengthAdjust="spacing" textLength="54" x="215" y="74.5332">backend</text><rect fill="#FEFECE" filter="url(#f1apmi3kpeqiwm)" height="31.6094" style="stroke:#A80036;stroke-width:1.5;" width="68" x="208" y="563.8828"/><text fill="#000000" font-family="sans-serif" font-size="14" lengthAdjust="spacing" textLength="54" x="215" y="585.416">backend</text><text fill="#000000" font-family="sans-serif" font-size="14" lengthAdjust="spacing" textLength="60" x="345" y="86.5332">datastore</text><path d="M360,36 C360,26 378,26 378,26 C378,26 396,26 396,36 L396,62 C396,72 378,72 378,72 C378,72 360,72 360,62 L360,36 " fill="#FEFECE" filter="url(#f1apmi3kpeqiwm)" style="stroke:#000000;stroke-width:1.5;"/><path d="M360,36 C360,46 378,46 378,46 C378,46 396,46 396,36 " fill="none" style="stroke:#000000;stroke-width:1.5;"/><text fill="#000000" font-family="sans-serif" font-size="14" lengthAdjust="spacing" textLength="60" x="345" y="578.416">datastore</text><path d="M360,591.4922 C360,581.4922 378,581.4922 378,581.4922 C378,581.4922 396,581.4922 396,591.4922 L396,617.4922 C396,627.4922 378,627.4922 378,627.4922 C378,627.4922 360,627.4922 360,617.4922 L360,591.4922 " fill="#FEFECE" filter="url(#f1apmi3kpeqiwm)" style="stroke:#000000;stroke-width:1.5;"/><path d="M360,591.4922 C360,601.4922 378,601.4922 378,601.4922 C378,601.4922 396,601.4922 396,591.4922 " fill="none" style="stroke:#000000;stroke-width:1.5;"/><polygon fill="#A80036" points="232,117.9609,242,121.9609,232,125.9609,236,121.9609" style="stroke:#A80036;stroke-width:1.0;"/><line style="stroke:#A80036;stroke-width:1.0;" x1="22" x2="238" y1="121.9609" y2="121.9609"/><text fill="#000000" font-family="sans-serif" font-size="13" lengthAdjust="spacing" textLength="150" x="29" y="117.1045">Launch commander script</text><polygon fill="#A80036" points="366,148.3125,376,152.3125,366,156.3125,370,152.3125" style="stroke:#A80036;stroke-width:1.0;"/><line style="stroke:#A80036;stroke-width:1.0;" x1="244" x2="372" y1="152.3125" y2="152.3125"/><text fill="#000000" font-family="sans-serif" font-size="13" lengthAdjust="spacing" textLength="72" x="251" y="147.4561">insert record</text><polygon fill="#A80036" points="255,178.6641,245,182.6641,255,186.6641,251,182.6641" style="stroke:#A80036;stroke-width:1.0;"/><line style="stroke:#A80036;stroke-width:1.0;" x1="249" x2="377" y1="182.6641" y2="182.6641"/><text fill="#000000" font-family="sans-serif" font-size="13" lengthAdjust="spacing" textLength="86" x="261" y="177.8076">record inserted</text><polygon fill="#A80036" points="366,209.0156,376,213.0156,366,217.0156,370,213.0156" style="stroke:#A80036;stroke-width:1.0;"/><line style="stroke:#A80036;stroke-width:1.0;" x1="244" x2="372" y1="213.0156" y2="213.0156"/><text fill="#000000" font-family="sans-serif" font-size="13" lengthAdjust="spacing" textLength="79" x="251" y="208.1592">update record</text><polygon fill="#A80036" points="255,239.3672,245,243.3672,255,247.3672,251,243.3672" style="stroke:#A80036;stroke-width:1.0;"/><line style="stroke:#A80036;stroke-width:1.0;" x1="249" x2="377" y1="243.3672" y2="243.3672"/><text fill="#000000" font-family="sans-serif" font-size="13" lengthAdjust="spacing" textLength="86" x="261" y="238.5107">record updated</text><polygon fill="#A80036" points="366,269.7188,376,273.7188,366,277.7188,370,273.7188" style="stroke:#A80036;stroke-width:1.0;"/><line style="stroke:#A80036;stroke-width:1.0;" x1="244" x2="372" y1="273.7188" y2="273.7188"/><text fill="#000000" font-family="sans-serif" font-size="13" lengthAdjust="spacing" textLength="75" x="251" y="268.8623">delete record</text><polygon fill="#A80036" points="255,300.0703,245,304.0703,255,308.0703,251,304.0703" style="stroke:#A80036;stroke-width:1.0;"/><line style="stroke:#A80036;stroke-width:1.0;" x1="249" x2="377" y1="304.0703" y2="304.0703"/><text fill="#000000" font-family="sans-serif" font-size="13" lengthAdjust="spacing" textLength="82" x="261" y="299.2139">record deleted</text><polygon fill="#A80036" points="366,330.4219,376,334.4219,366,338.4219,370,334.4219" style="stroke:#A80036;stroke-width:1.0;"/><line style="stroke:#A80036;stroke-width:1.0;" x1="244" x2="372" y1="334.4219" y2="334.4219"/><text fill="#000000" font-family="sans-serif" font-size="13" lengthAdjust="spacing" textLength="75" x="251" y="329.5654">select record</text><polygon fill="#A80036" points="255,360.7734,245,364.7734,255,368.7734,251,364.7734" style="stroke:#A80036;stroke-width:1.0;"/><line style="stroke:#A80036;stroke-width:1.0;" x1="249" x2="377" y1="364.7734" y2="364.7734"/><text fill="#000000" font-family="sans-serif" font-size="13" lengthAdjust="spacing" textLength="110" x="261" y="359.917">select row returned</text><polygon fill="#A80036" points="33,391.125,23,395.125,33,399.125,29,395.125" style="stroke:#A80036;stroke-width:1.0;"/><line style="stroke:#A80036;stroke-width:1.0;" x1="27" x2="243" y1="395.125" y2="395.125"/><text fill="#000000" font-family="sans-serif" font-size="13" lengthAdjust="spacing" textLength="114" x="39" y="390.2686">Show record details</text><polygon fill="#A80036" points="232,421.4766,242,425.4766,232,429.4766,236,425.4766" style="stroke:#A80036;stroke-width:1.0;"/><line style="stroke:#A80036;stroke-width:1.0;" x1="22" x2="238" y1="425.4766" y2="425.4766"/><text fill="#000000" font-family="sans-serif" font-size="13" lengthAdjust="spacing" textLength="172" x="29" y="420.6201">Launch password apply script</text><polygon fill="#A80036" points="33,451.8281,23,455.8281,33,459.8281,29,455.8281" style="stroke:#A80036;stroke-width:1.0;"/><line style="stroke:#A80036;stroke-width:1.0;" x1="27" x2="243" y1="455.8281" y2="455.8281"/><text fill="#000000" font-family="sans-serif" font-size="13" lengthAdjust="spacing" textLength="198" x="39" y="450.9717">password success msg on cluster</text><polygon fill="#A80036" points="33,482.1797,23,486.1797,33,490.1797,29,486.1797" style="stroke:#A80036;stroke-width:1.0;"/><line style="stroke:#A80036;stroke-width:1.0;" x1="27" x2="243" y1="486.1797" y2="486.1797"/><text fill="#000000" font-family="sans-serif" font-size="13" lengthAdjust="spacing" textLength="184" x="39" y="481.3232">password success on msg repo</text><polygon fill="#A80036" points="33,512.5313,23,516.5313,33,520.5313,29,516.5313" style="stroke:#A80036;stroke-width:1.0;"/><line style="stroke:#A80036;stroke-width:1.0;" x1="27" x2="243" y1="516.5313" y2="516.5313"/><text fill="#000000" font-family="sans-serif" font-size="13" lengthAdjust="spacing" textLength="183" x="39" y="511.6748">password failure msg on cluster</text><polygon fill="#A80036" points="33,542.8828,23,546.8828,33,550.8828,29,546.8828" style="stroke:#A80036;stroke-width:1.0;"/><line style="stroke:#A80036;stroke-width:1.0;" x1="27" x2="243" y1="546.8828" y2="546.8828"/><text fill="#000000" font-family="sans-serif" font-size="13" lengthAdjust="spacing" textLength="169" x="39" y="542.0264">password failure on msg repo</text><!--MD5=[9aaa3fbb1c5ae4aa842b5bcffc4fabcc]
@startuml
actor user
participant backend
database datastore

user -> backend:Launch commander script
backend -> datastore:insert record
datastore -> backend:record inserted
backend -> datastore:update record
datastore -> backend:record updated
backend -> datastore:delete record
datastore -> backend:record deleted
backend -> datastore:select record
datastore -> backend:select row returned
backend -> user:Show record details
user -> backend:Launch password apply script
backend -> user:password success msg on cluster
backend -> user:password success on msg repo
backend -> user:password failure msg on cluster
backend -> user:password failure on msg repo


@enduml

PlantUML version 1.2021.7(Sun May 23 14:40:07 CAT 2021)
(GPL source distribution)
Java Runtime: Java(TM) SE Runtime Environment
JVM: Java HotSpot(TM) Client VM
Default Encoding: Cp1252
Language: en
Country: ZA
--></g></svg>